{
  "accessors": [
    {
      "bufferView": 1,
      "componentType": 5126,
      "count": 65532,
      "max": [
        90.50112915039063,
        -50.98713684082031,
        183.38238525390625
      ],
      "min": [
        29.534008026123047,
        -153.33251953125,
        19.007282257080078
      ],
      "type": "VEC3"
    },
    {
      "bufferView": 1,
      "byteOffset": 786384,
      "componentType": 5126,
      "count": 65532,
      "max": [
        0.9999803304672241,
        0.9999850988388062,
        0.9999989867210388
      ],
      "min": [
        -0.9999971389770508,
        -0.9999949932098389,
        -0.9999803304672241
      ],
      "type": "VEC3"
    },
    {
      "bufferView": 0,
      "componentType": 5125,
      "count": 379995,
      "type": "SCALAR"
    },
    {
      "bufferView": 1,
      "byteOffset": 1572768,
      "componentType": 5126,
      "count": 10064,
      "max": [
        88.44807434082031,
        -113.82936096191406,
        176.22483825683594
      ],
      "min": [
        33.343299865722656,
        -145.00498962402344,
        30.616641998291016
      ],
      "type": "VEC3"
    },
    {
      "bufferView": 1,
      "byteOffset": 1693536,
      "componentType": 5126,
      "count": 10064,
      "max": [
        0.9999483823776245,
        0.9999850988388062,
        0.9999258518218994
      ],
      "min": [
        -0.9998636245727539,
        -0.9979321360588074,
        -0.9999614953994751
      ],
      "type": "VEC3"
    },
    {
      "bufferView": 0,
      "byteOffset": 1519980,
      "componentType": 5125,
      "count": 40191,
      "type": "SCALAR"
    }
  ],
  "asset": {
    "extras": {
      "author": "VISIBLE APE PROJECT (https://sketchfab.com/VISIBLEAPEPROJECT)",
      "license": "CC-BY-4.0 (http://creativecommons.org/licenses/by/4.0/)",
      "source": "https://sketchfab.com/3d-models/human-brain-hemispheric-white-matter-5b68c209050d4240a558b8ba74e6184c",
      "title": "Human Brain: Hemispheric White Matter"
    },
    "generator": "Sketchfab-11.71.0",
    "version": "2.0"
  },
  "bufferViews": [
    {
      "buffer": 0,
      "byteLength": 1680744,
      "name": "floatBufferViews",
      "target": 34963
    },
    {
      "buffer": 0,
      "byteLength": 1814304,
      "byteOffset": 1680744,
      "byteStride": 12,
      "name": "floatBufferViews",
      "target": 34962
    }
  ],
  "buffers": [
    {
      "byteLength": 3495048,
      "uri": "scene.bin"
    }
  ],
  "materials": [
    {
      "doubleSided": true,
      "name": "material_0",
      "pbrMetallicRoughness": {
        "metallicFactor": 0.5428454602387076,
        "roughnessFactor": 0.6
      }
    }
  ],
  "meshes": [
    {
      "name": "Object_0",
      "primitives": [
        {
          "attributes": {
            "NORMAL": 1,
            "POSITION": 0
          },
          "indices": 2,
          "material": 0,
          "mode": 4
        }
      ]
    },
    {
      "name": "Object_1",
      "primitives": [
        {
          "attributes": {
            "NORMAL": 4,
            "POSITION": 3
          },
          "indices": 5,
          "material": 0,
          "mode": 4
        }
      ]
    }
  ],
  "nodes": [
    {
      "children": [
        1
      ],
      "matrix": [
        0.0,
        1.0833105441634759e-17,
        -0.02168354205787182,
        0.0,
        -6.01839191201931e-18,
        -0.02168354205787182,
        -1.203678382403862e-17,
        0.0,
        -0.02168354205787182,
        7.222070294423172e-18,
        1.2036783824038636e-18,
        0.0,
        161.21243286132813,
        -0.9654836654663446,
        162.17791748046875,
        1.0
      ],
      "name": "Sketchfab_model"
    },
    {
      "children": [
        2,
        3
      ],
      "name": "HumanHemiWMML.obj.cleaner.materialmerger.gles"
    },
    {
      "mesh": 0,
      "name": "Object_2"
    },
    {
      "mesh": 1,
      "name": "Object_3"
    }
  ],
  "scene": 0,
  "scenes": [
    {
      "name": "Sketchfab_Scene",
      "nodes": [
        0
      ]
    }
  ]
}
